<?xml version="1.0" standalone="no"?>
<!DOCTYPE svg PUBLIC "-//W3C//DTD SVG 20010904//EN"
 "http://www.w3.org/TR/2001/REC-SVG-20010904/DTD/svg10.dtd">
<svg version="1.0" xmlns="http://www.w3.org/2000/svg"
 width="400.000000pt" height="225.000000pt" viewBox="0 0 400.000000 225.000000"
 preserveAspectRatio="xMidYMid meet">

<g transform="translate(0.000000,225.000000) scale(0.100000,-0.100000)"
fill="#000000" stroke="none">
<path d="M0 1125 l0 -1125 2000 0 2000 0 0 1125 0 1125 -2000 0 -2000 0 0
-1125z m1045 905 c98 -14 200 -53 267 -103 32 -23 58 -45 58 -49 0 -7 -96 -78
-106 -78 -4 0 -22 14 -42 31 -78 69 -209 99 -344 79 -198 -29 -291 -127 -291
-305 0 -141 64 -237 192 -286 75 -30 279 -32 355 -5 107 39 161 97 154 166
l-3 35 -173 3 -173 2 3 58 3 57 238 3 237 2 0 -134 0 -135 -50 -51 c-184 -189
-610 -199 -804 -20 -175 162 -158 494 33 634 111 82 282 119 446 96z m1158
-11 c66 -14 182 -71 225 -109 17 -16 32 -32 32 -34 0 -6 -98 -76 -106 -76 -4
0 -22 14 -42 31 -78 69 -209 99 -344 79 -197 -29 -291 -126 -292 -305 0 -188
113 -295 331 -311 149 -11 270 23 339 94 29 30 34 42 34 84 l0 48 -170 0 -170
0 0 60 0 60 235 0 235 0 0 -135 0 -136 -50 -50 c-187 -187 -610 -198 -802 -20
-139 128 -165 382 -56 546 61 92 189 162 340 185 61 10 186 4 261 -11z m1051
-9 c70 -18 168 -61 210 -93 19 -14 18 -16 -25 -61 l-44 -47 -37 26 c-96 65
-255 97 -390 77 -141 -20 -215 -74 -193 -138 20 -56 78 -74 323 -99 203 -20
297 -46 362 -102 55 -46 73 -120 50 -203 -51 -183 -427 -259 -716 -145 -71 28
-176 92 -180 110 -2 6 14 29 35 53 l37 43 68 -46 c102 -68 183 -90 341 -90
151 0 218 17 260 66 45 54 29 111 -42 148 -24 12 -171 36 -283 46 -175 15
-296 59 -354 127 -55 63 -56 137 -5 212 84 123 349 176 583 116z m-2881 -1112
c14 -7 16 -12 7 -23 -9 -11 -17 -12 -30 -5 -73 39 -153 -34 -118 -107 29 -60
119 -67 126 -10 3 24 0 27 -27 27 -21 0 -31 5 -31 15 0 11 12 15 50 15 l50 0
0 -45 c0 -40 -4 -48 -32 -66 -40 -24 -108 -21 -140 7 -71 64 -50 177 38 204
31 9 77 4 107 -12z m1260 0 c14 -7 16 -12 7 -23 -9 -11 -17 -12 -30 -5 -31 16
-79 11 -100 -10 -22 -22 -27 -78 -10 -109 26 -50 120 -47 120 4 0 21 -5 25
-30 25 -20 0 -30 5 -30 15 0 11 12 15 50 15 l50 0 0 -49 c0 -46 -2 -50 -36
-66 -86 -40 -174 11 -174 101 0 98 92 150 183 102z m255 -5 c28 -17 42 -52 42
-101 0 -112 -152 -152 -214 -58 -32 50 -13 139 36 163 52 25 92 24 136 -4z
m750 12 c15 -4 22 -13 19 -23 -2 -10 -10 -15 -18 -13 -8 3 -30 5 -49 5 -29 1
-36 -3 -38 -21 -3 -18 4 -24 35 -32 78 -21 105 -67 69 -117 -28 -37 -171 -14
-147 24 6 10 16 9 44 -3 35 -14 65 -11 79 8 12 19 -4 37 -46 49 -54 15 -76 35
-76 68 0 29 23 55 55 63 21 5 34 3 73 -8z m405 4 c28 -7 37 -15 35 -27 -3 -9
-11 -15 -19 -13 -8 3 -30 5 -49 5 -29 1 -36 -3 -38 -21 -3 -18 4 -24 35 -32
56 -15 83 -38 83 -70 0 -39 -20 -61 -61 -67 -46 -8 -115 21 -99 41 9 11 18 11
46 -1 39 -16 69 -12 78 12 9 23 0 32 -47 45 -23 7 -50 19 -59 27 -35 29 -17
87 32 105 22 8 21 8 63 -4z m-2435 -15 c31 -22 30 -77 -2 -108 l-25 -22 24
-30 c13 -16 24 -35 25 -41 0 -27 -31 -11 -58 27 -27 39 -61 58 -81 45 -6 -3
-11 -24 -11 -46 0 -28 -4 -39 -15 -39 -12 0 -15 19 -15 115 l0 115 68 0 c45 0
75 -5 90 -16z m242 1 c0 -12 -14 -15 -65 -15 l-65 0 0 -30 c0 -30 1 -30 55
-30 48 0 55 -2 55 -20 0 -18 -7 -20 -55 -20 -54 0 -55 0 -55 -30 l0 -30 66 0
c57 0 65 -2 62 -17 -3 -15 -15 -18 -83 -18 l-80 0 -3 113 -3 112 86 0 c69 0
85 -3 85 -15z m218 3 c-3 -8 -30 -15 -69 -18 -61 -5 -64 -6 -67 -32 -3 -28 -3
-28 57 -28 54 0 61 -2 61 -20 0 -18 -7 -20 -60 -20 l-60 0 0 -30 0 -30 71 0
c62 0 70 -2 67 -17 -3 -15 -16 -18 -86 -21 l-82 -3 0 116 0 115 86 0 c64 0 85
-3 82 -12z m142 -65 l55 -73 3 75 c3 67 5 75 22 75 19 0 20 -7 20 -115 0 -89
-3 -115 -13 -115 -8 0 -43 37 -78 83 l-64 82 -3 -83 c-2 -72 -5 -83 -20 -80
-15 3 -17 19 -20 116 -3 113 -3 113 20 110 14 -2 43 -30 78 -75z m810 -18 l0
-95 60 0 c54 0 60 -2 60 -20 0 -19 -5 -21 -77 -18 l-78 3 -3 113 c-3 107 -2
112 18 112 19 0 20 -6 20 -95z m328 62 c22 -22 27 -36 27 -76 0 -79 -55 -121
-157 -121 l-38 0 0 116 0 116 70 -4 c60 -3 74 -8 98 -31z m419 -12 c15 -25 31
-45 35 -45 3 0 19 20 35 45 19 31 35 45 50 45 19 0 18 -5 -23 -67 -37 -56 -44
-75 -44 -116 0 -41 -3 -48 -17 -45 -14 2 -19 15 -21 52 -2 37 -13 63 -43 107
-21 32 -39 60 -39 63 0 4 9 6 19 6 12 0 30 -17 48 -45z m541 33 c-3 -7 -21
-14 -41 -16 l-37 -3 0 -100 c0 -90 -2 -100 -17 -97 -15 3 -18 17 -21 101 l-3
97 -34 0 c-24 0 -35 5 -35 15 0 12 17 15 96 15 72 0 95 -3 92 -12z m202 -3 c0
-12 -14 -15 -65 -15 l-65 0 0 -30 c0 -30 1 -30 55 -30 48 0 55 -2 55 -20 0
-18 -7 -20 -55 -20 -54 0 -55 0 -55 -30 l0 -30 66 0 c57 0 65 -2 62 -17 -3
-15 -15 -18 -83 -18 l-80 0 -3 113 -3 112 86 0 c69 0 85 -3 85 -15z m121 -35
c17 -27 34 -50 38 -50 4 0 20 23 36 50 22 37 35 50 52 50 23 0 23 -2 23 -116
0 -105 -2 -115 -17 -112 -15 3 -19 17 -23 83 l-5 80 -30 -47 c-16 -27 -33 -48
-37 -48 -3 0 -19 20 -35 45 -15 25 -31 45 -35 45 -5 0 -8 -36 -8 -80 0 -64 -3
-80 -15 -80 -12 0 -15 19 -15 115 0 109 1 115 20 115 13 0 31 -17 51 -50z
m-781 -370 c0 -7 -297 -10 -870 -10 -573 0 -870 3 -870 10 0 7 297 10 870 10
573 0 870 -3 870 -10z m-2332 -238 c3 -18 -3 -26 -27 -35 -17 -6 -31 -17 -31
-24 0 -7 -4 -13 -10 -13 -5 0 -10 23 -10 51 l0 50 38 -3 c30 -2 38 -7 40 -26z
m92 -12 c23 -45 27 -71 8 -52 -16 16 -65 15 -71 0 -2 -7 -7 -11 -10 -8 -8 7
33 100 44 100 5 0 18 -18 29 -40z m133 26 c3 -8 0 -22 -8 -32 -10 -14 -10 -23
-3 -32 6 -7 8 -15 4 -19 -3 -4 -13 3 -22 15 -19 27 -34 28 -34 2 0 -11 -4 -20
-10 -20 -5 0 -10 23 -10 50 l0 50 39 0 c24 0 41 -5 44 -14z m95 7 c-14 -3 -18
-15 -18 -49 0 -24 -4 -44 -10 -44 -5 0 -10 20 -10 44 0 34 -4 46 -17 49 -10 3
2 5 27 5 25 0 37 -2 28 -5z m82 -30 l25 -37 6 40 c6 36 6 35 7 -16 l1 -55 -34
39 -35 39 0 -36 c0 -21 -4 -37 -10 -37 -5 0 -10 23 -10 50 0 61 15 65 50 13z
m123 30 c-20 -3 -33 -10 -33 -19 0 -9 11 -14 33 -15 l32 -1 -30 -7 c-17 -3
-30 -13 -30 -21 0 -8 13 -18 30 -21 29 -6 29 -7 -7 -8 l-38 -1 0 50 0 50 38
-2 c36 -1 36 -1 5 -5z m143 -4 c3 -6 1 -22 -6 -35 -11 -19 -11 -26 0 -39 8
-10 9 -15 1 -15 -6 0 -16 9 -23 20 -7 11 -18 20 -25 20 -7 0 -13 -9 -13 -20 0
-11 -4 -20 -10 -20 -5 0 -10 23 -10 50 l0 50 39 0 c22 0 43 -5 47 -11z m168
-21 c12 -34 -14 -68 -54 -68 -33 0 -50 17 -50 50 0 36 19 51 60 48 27 -2 37
-9 44 -30z m79 25 c-43 -6 -45 -33 -3 -33 17 0 30 -4 30 -10 0 -5 -13 -10 -29
-10 -23 0 -31 -5 -34 -22 -2 -13 -5 1 -6 30 l-1 52 38 -2 c36 -1 36 -1 5 -5z
m160 -20 c8 -16 18 -39 22 -53 6 -20 5 -23 -6 -12 -7 6 -25 12 -40 12 -15 0
-29 -6 -32 -12 -2 -7 -7 -11 -10 -8 -8 7 33 100 44 100 5 0 15 -12 22 -27z
m134 11 c3 -9 1 -24 -4 -33 -7 -11 -7 -23 -1 -34 13 -24 -5 -21 -20 3 -7 11
-17 20 -22 20 -6 0 -10 -9 -10 -20 0 -11 -4 -20 -10 -20 -5 0 -10 23 -10 50
l0 50 35 0 c24 0 38 -5 42 -16z m101 9 c-13 -3 -18 -15 -18 -43 0 -21 -4 -42
-10 -45 -6 -4 -10 11 -10 39 0 38 -3 45 -22 49 -13 2 0 4 27 4 28 1 42 -1 33
-4z m85 0 c-41 -5 -45 -32 -5 -34 l27 -2 -27 -4 c-42 -6 -38 -40 5 -46 28 -3
26 -4 -10 -5 l-43 -2 0 50 0 50 43 -2 c36 -1 38 -2 10 -5z m67 -32 c0 -27 5
-41 16 -45 25 -10 44 13 44 51 0 20 4 32 10 28 9 -6 4 -70 -7 -87 -2 -5 -18
-8 -34 -8 -22 0 -32 6 -39 26 -13 33 -13 74 0 74 6 0 10 -18 10 -39z m170 30
c0 -4 -11 -6 -25 -3 -32 6 -33 -15 -1 -28 30 -11 38 -23 30 -44 -7 -18 -59
-22 -69 -6 -4 6 6 7 25 4 41 -9 41 20 0 35 -28 9 -38 29 -23 44 9 10 63 8 63
-2z m160 -1 c0 -5 -13 -7 -29 -4 -23 5 -32 2 -40 -14 -20 -38 13 -71 54 -56
13 5 16 4 11 -4 -9 -16 -59 -15 -74 0 -7 7 -12 24 -12 38 0 14 5 31 12 38 14
14 78 16 78 2z m103 -33 c20 -49 22 -66 5 -49 -14 14 -68 16 -68 2 0 -5 -4
-10 -9 -10 -6 0 -1 23 11 50 11 28 26 50 32 50 6 0 19 -19 29 -43z m125 15 c3
-18 -3 -26 -27 -35 -17 -6 -31 -17 -31 -24 0 -7 -4 -13 -10 -13 -5 0 -10 23
-10 51 l0 50 38 -3 c30 -2 38 -7 40 -26z m42 -27 c0 -30 -4 -55 -10 -55 -5 0
-10 25 -10 55 0 30 5 55 10 55 6 0 10 -25 10 -55z m98 48 c-14 -3 -18 -15 -18
-49 0 -24 -4 -44 -10 -44 -5 0 -10 20 -10 44 0 34 -4 46 -17 49 -10 3 2 5 27
5 25 0 37 -2 28 -5z m100 -40 c11 -26 18 -50 15 -53 -3 -3 -8 1 -10 8 -6 15
-55 16 -71 0 -9 -9 -12 -9 -12 0 0 19 39 92 49 92 5 0 18 -21 29 -47z m95 -46
c31 -4 31 -4 -5 -5 l-38 -2 2 53 2 52 3 -47 c4 -44 6 -47 36 -51z m167 85 c0
-4 -12 -8 -26 -7 -33 0 -53 -28 -38 -52 13 -21 55 -24 62 -5 2 6 -3 12 -12 12
-9 0 -16 5 -16 10 0 6 9 10 21 10 16 0 20 -5 17 -27 -2 -23 -8 -29 -35 -31
-25 -3 -35 2 -49 22 -15 24 -15 28 0 51 11 17 26 25 46 25 17 0 30 -4 30 -8z
m127 -7 c3 -9 -2 -24 -11 -34 -12 -13 -14 -21 -7 -26 6 -3 11 -11 11 -17 0 -6
-10 -2 -23 10 -29 27 -37 28 -37 2 0 -11 -4 -20 -10 -20 -5 0 -10 23 -10 50
l0 50 40 0 c27 0 43 -5 47 -15z m127 -17 c8 -22 6 -32 -9 -48 -44 -49 -114 -4
-87 56 10 21 18 25 49 22 31 -2 39 -8 47 -30z m60 -47 c25 -21 46 -2 46 40 0
21 5 39 10 39 13 0 13 -41 0 -75 -8 -22 -15 -26 -42 -23 -32 3 -33 4 -34 53
-1 34 0 38 3 13 2 -20 10 -41 17 -47z m172 57 c7 -24 -16 -48 -47 -48 -10 0
-20 -8 -22 -17 -3 -10 -5 6 -6 35 l-1 52 34 0 c27 0 36 -5 42 -22z"/>
<path d="M1762 857 c-23 -25 -29 -75 -12 -107 27 -51 118 -38 138 19 29 81
-69 149 -126 88z"/>
<path d="M484 866 c-3 -8 -4 -25 -2 -38 3 -21 8 -23 53 -23 48 0 50 1 53 29 2
16 -2 32 -10 37 -22 14 -88 11 -94 -5z"/>
<path d="M2210 800 l0 -80 40 0 c30 0 47 7 65 25 54 53 15 135 -65 135 l-40 0
0 -80z"/>
<path d="M460 250 c0 -13 7 -20 18 -20 24 0 32 8 25 26 -8 22 -43 17 -43 -6z"/>
<path d="M577 253 c-12 -12 -7 -33 8 -33 17 0 19 9 7 28 -5 7 -11 9 -15 5z"/>
<path d="M680 250 c0 -16 5 -21 23 -18 12 2 22 10 22 18 0 8 -10 16 -22 18
-18 3 -23 -2 -23 -18z"/>
<path d="M1120 250 c0 -16 5 -21 23 -18 12 2 22 10 22 18 0 8 -10 16 -22 18
-18 3 -23 -2 -23 -18z"/>
<path d="M1277 263 c-4 -3 -7 -19 -7 -34 0 -19 6 -30 20 -34 39 -12 66 35 38
63 -13 13 -41 16 -51 5z"/>
<path d="M1561 241 c-10 -18 -9 -21 9 -21 22 0 25 7 11 29 -7 11 -11 9 -20 -8z"/>
<path d="M1670 250 c0 -16 5 -21 23 -18 12 2 22 10 22 18 0 8 -10 16 -22 18
-18 3 -23 -2 -23 -18z"/>
<path d="M2377 253 c-12 -12 -7 -33 8 -33 17 0 19 9 7 28 -5 7 -11 9 -15 5z"/>
<path d="M2480 250 c0 -13 7 -20 20 -20 13 0 20 7 20 20 0 13 -7 20 -20 20
-13 0 -20 -7 -20 -20z"/>
<path d="M2736 244 c-9 -22 -8 -24 9 -24 8 0 15 6 15 14 0 22 -17 28 -24 10z"/>
<path d="M3100 250 c0 -16 5 -21 23 -18 12 2 22 10 22 18 0 8 -10 16 -22 18
-18 3 -23 -2 -23 -18z"/>
<path d="M3214 256 c-15 -40 21 -81 50 -57 21 17 21 57 0 65 -26 10 -44 7 -50
-8z"/>
<path d="M3460 251 c0 -16 6 -21 26 -21 33 0 30 33 -4 38 -17 3 -22 -2 -22
-17z"/>
</g>
</svg>
