<?xml version="1.0" standalone="no"?>
<!DOCTYPE svg PUBLIC "-//W3C//DTD SVG 20010904//EN"
 "http://www.w3.org/TR/2001/REC-SVG-20010904/DTD/svg10.dtd">
<svg version="1.0" xmlns="http://www.w3.org/2000/svg"
 width="2330.000000pt" height="1000.000000pt" viewBox="0 0 2330.000000 1000.000000"
 preserveAspectRatio="xMidYMid meet">

<g transform="translate(0.000000,1000.000000) scale(0.100000,-0.100000)"
fill="#000000" stroke="none">
<path d="M5040 8559 c-41 -17 -79 -34 -84 -39 -5 -5 34 -115 94 -264 57 -141
102 -257 99 -259 -2 -3 -56 -30 -119 -62 -492 -245 -943 -642 -1250 -1100
-304 -453 -483 -934 -556 -1491 -22 -163 -25 -579 -5 -739 67 -559 244 -1046
542 -1495 132 -198 248 -339 414 -505 655 -656 1543 -1009 2465 -982 302 9
576 53 860 138 77 23 142 40 144 38 2 -2 47 -116 101 -254 53 -137 98 -252
101 -256 2 -4 44 9 92 28 l89 35 -85 217 c-109 279 -117 304 -105 308 5 2 77
37 159 77 344 168 628 371 895 639 115 115 265 287 297 340 12 20 -1 57 -133
382 -81 198 -150 366 -152 373 -3 7 -25 -22 -50 -65 -354 -623 -957 -1079
-1662 -1258 -235 -59 -332 -70 -651 -69 -275 0 -305 2 -440 27 -609 111 -1114
386 -1531 835 -321 344 -556 806 -648 1273 -41 213 -46 261 -46 524 0 291 12
397 71 635 121 494 372 933 735 1286 212 205 414 348 684 480 206 101 321 144
519 194 212 53 349 71 586 77 284 7 510 -20 779 -93 51 -14 94 -24 96 -22 1 2
-66 170 -149 374 l-151 372 -87 11 c-505 65 -1066 5 -1534 -164 l-91 -33 -104
259 c-57 142 -106 259 -109 258 -3 0 -39 -14 -80 -30z"/>
<path d="M18827 7280 c-463 -59 -788 -285 -917 -639 -47 -129 -63 -243 -57
-401 15 -372 170 -601 513 -761 107 -51 332 -126 554 -184 433 -115 598 -194
651 -310 25 -55 25 -175 0 -230 -24 -54 -110 -129 -174 -154 -97 -36 -168 -44
-335 -39 -121 4 -184 12 -277 33 -309 70 -597 223 -817 434 l-48 45 0 -395 0
-395 93 -56 c234 -142 468 -229 754 -279 105 -19 165 -23 333 -24 216 0 285 8
447 51 466 124 736 446 760 904 25 492 -206 778 -783 969 -82 28 -228 71 -324
96 -323 85 -470 142 -552 214 -58 51 -80 105 -81 197 0 62 4 79 30 125 60 107
170 159 353 166 196 9 351 -28 577 -137 105 -50 159 -82 290 -167 24 -16 32
-37 -231 601 -63 153 -118 282 -123 287 -4 4 -64 17 -133 29 -141 23 -399 33
-503 20z"/>
<path d="M8631 7233 c-45 -85 -822 -1899 -818 -1912 5 -16 338 -844 341 -848
2 -2 182 427 401 951 219 525 402 953 405 951 3 -2 226 -544 495 -1204 l490
-1201 372 0 c205 0 373 2 373 5 0 4 -1107 2608 -1327 3123 l-65 152 -329 0
c-302 0 -329 -1 -338 -17z"/>
<path d="M10610 6515 l0 -716 350 -901 c193 -495 355 -908 360 -917 6 -10 10
460 10 1292 l0 1308 433 -3 c371 -4 440 -7 492 -21 151 -44 243 -116 302 -235
l38 -76 0 -130 c0 -114 -3 -139 -24 -189 -31 -79 -121 -174 -203 -215 -119
-60 -152 -64 -511 -71 l-328 -6 528 -832 528 -833 418 0 c332 0 417 3 411 13
-4 6 -180 264 -390 572 -211 308 -383 564 -384 569 -1 5 33 24 74 41 410 179
635 561 612 1040 -10 224 -63 400 -167 554 -154 231 -400 378 -741 443 -109
20 -144 21 -960 25 l-848 4 0 -716z"/>
<path d="M13480 7218 c0 -7 58 -155 128 -328 l127 -315 378 -3 377 -2 0 -1300
0 -1300 360 0 360 0 0 1300 0 1300 430 0 430 0 0 330 0 330 -1295 0 c-1029 0
-1295 -3 -1295 -12z"/>
<path d="M16560 5600 l0 -1630 355 0 355 0 0 1630 0 1630 -355 0 -355 0 0
-1630z"/>
</g>
</svg>
