<?xml version="1.0" standalone="no"?>
<!DOCTYPE svg PUBLIC "-//W3C//DTD SVG 20010904//EN"
 "http://www.w3.org/TR/2001/REC-SVG-20010904/DTD/svg10.dtd">
<svg version="1.0" xmlns="http://www.w3.org/2000/svg"
 width="930.000000pt" height="288.000000pt" viewBox="0 0 930.000000 288.000000"
 preserveAspectRatio="xMidYMid meet">

<g transform="translate(0.000000,288.000000) scale(0.100000,-0.100000)"
fill="#000000" stroke="none">
<path d="M6180 2031 c-47 -25 -66 -48 -85 -100 -22 -64 -22 -798 0 -862 31
-86 84 -119 192 -119 87 0 138 27 173 90 21 38 25 61 28 153 l4 107 -71 0 -71
0 0 -100 c0 -95 -2 -102 -26 -126 -19 -20 -31 -24 -52 -19 -52 12 -52 8 -52
447 0 395 1 409 20 428 28 28 64 25 89 -6 18 -23 21 -41 21 -120 l0 -94 71 0
71 0 -4 98 c-4 126 -31 186 -98 220 -57 28 -158 30 -210 3z"/>
<path d="M6710 1501 l0 -541 65 0 65 0 0 295 0 295 23 0 c22 0 25 -10 71 -247
26 -137 52 -269 58 -295 l10 -48 69 0 c38 0 69 2 69 4 0 2 -29 125 -65 274
-36 148 -65 275 -65 281 0 6 15 17 34 25 61 25 71 59 71 236 0 170 -7 196 -58
234 -26 19 -45 21 -188 24 l-159 4 0 -541z m217 429 c43 -16 53 -47 53 -171 0
-109 0 -111 -29 -140 -23 -23 -39 -29 -70 -29 l-41 0 0 175 0 175 29 0 c15 0
42 -5 58 -10z"/>
<path d="M7340 1500 l0 -540 180 0 180 0 0 55 0 55 -110 0 -110 0 0 220 0 220
110 0 110 0 0 55 0 55 -110 0 -110 0 0 155 0 155 110 0 110 0 0 55 0 55 -180
0 -180 0 0 -540z"/>
<path d="M7920 1499 l0 -541 148 4 c166 3 199 14 237 78 19 33 20 54 23 440 2
291 0 417 -9 448 -24 85 -91 112 -284 112 l-115 0 0 -541z m250 404 c20 -26
21 -33 18 -411 l-3 -384 -24 -19 c-14 -11 -39 -19 -62 -19 l-39 0 0 430 0 430
44 0 c36 0 48 -5 66 -27z"/>
<path d="M8570 1500 l0 -540 70 0 70 0 0 540 0 540 -70 0 -70 0 0 -540z"/>
<path d="M8917 2033 c-4 -3 -7 -28 -7 -55 l0 -48 65 0 65 0 0 -485 0 -485 70
0 70 0 0 485 0 485 60 0 60 0 0 55 0 55 -188 0 c-104 0 -192 -3 -195 -7z"/>
<path d="M2810 232 c-74 -36 -88 -130 -30 -195 25 -29 34 -32 83 -32 62 0 91
18 114 74 25 59 -5 133 -64 157 -43 18 -61 18 -103 -4z m109 -38 c63 -52 29
-164 -49 -164 -45 0 -70 16 -86 57 -27 63 16 131 83 133 12 0 35 -12 52 -26z"/>
<path d="M4605 239 c-73 -41 -57 -98 35 -128 43 -14 56 -23 58 -41 2 -12 -2
-27 -10 -31 -21 -14 -72 -10 -94 6 -12 8 -24 11 -28 8 -24 -24 42 -57 98 -50
45 6 66 28 66 67 0 34 -24 55 -76 69 -48 13 -67 31 -58 55 9 23 49 30 85 16
34 -14 50 -6 28 15 -20 19 -80 27 -104 14z"/>
<path d="M4942 234 c-85 -44 -86 -176 -1 -222 31 -17 104 -9 130 14 27 24 8
42 -22 20 -63 -44 -139 -1 -139 78 0 37 5 48 31 70 35 30 58 32 101 10 40 -21
61 -3 25 21 -38 24 -87 28 -125 9z"/>
<path d="M6800 233 c-74 -38 -88 -131 -30 -196 26 -29 34 -32 85 -32 51 0 59
3 85 32 94 105 -16 260 -140 196z m93 -25 c35 -18 46 -40 47 -86 0 -101 -127
-130 -165 -38 -35 83 43 164 118 124z"/>
<path d="M7922 233 c-67 -33 -85 -137 -34 -194 35 -39 102 -50 150 -25 29 15
32 21 32 66 l0 50 -51 0 c-57 0 -66 -23 -11 -28 28 -3 32 -7 32 -32 0 -31 -14
-40 -66 -40 -81 0 -115 101 -55 161 32 32 62 36 103 15 26 -14 38 -12 38 6 0
11 -63 38 -87 38 -10 0 -33 -8 -51 -17z"/>
<path d="M1130 119 c0 -92 3 -120 13 -117 8 3 13 33 15 92 l3 88 40 -56 c22
-31 41 -56 43 -56 2 0 21 26 42 58 l39 57 3 -93 c2 -68 6 -92 15 -89 8 2 13
40 15 120 2 107 1 117 -15 117 -11 0 -33 -24 -57 -60 -21 -33 -40 -60 -42 -60
-2 0 -22 27 -44 60 -62 91 -70 83 -70 -61z"/>
<path d="M1422 123 l3 -118 84 0 c59 0 86 4 89 13 3 9 -16 12 -72 12 l-76 0 0
40 0 40 65 0 c51 0 65 3 65 15 0 12 -14 15 -65 15 l-65 0 0 35 0 34 72 3 c46
2 73 7 76 16 3 9 -19 12 -87 12 l-92 0 3 -117z"/>
<path d="M1650 119 c0 -92 3 -120 13 -117 8 3 14 35 17 91 l5 87 35 -55 c19
-30 37 -55 40 -55 3 0 21 24 40 53 l35 52 5 -85 c4 -67 8 -85 20 -85 12 0 16
21 18 118 2 110 1 117 -17 117 -12 0 -32 -21 -57 -60 -22 -33 -41 -60 -44 -60
-3 0 -22 27 -44 60 -58 90 -66 83 -66 -61z"/>
<path d="M1940 119 l0 -121 74 4 c55 2 80 8 95 22 26 24 27 70 2 88 -17 12
-17 16 -5 33 19 26 17 52 -6 75 -16 16 -33 20 -90 20 l-70 0 0 -121z m145 71
c11 -33 -12 -50 -66 -50 l-49 0 0 35 0 35 54 0 c46 0 56 -3 61 -20z m3 -92
c18 -18 14 -46 -7 -58 -11 -5 -40 -10 -65 -10 l-46 0 0 40 0 40 53 0 c29 0 58
-5 65 -12z"/>
<path d="M2182 123 l3 -118 84 0 c59 0 86 4 89 13 3 9 -16 12 -72 12 l-76 0 0
40 0 40 65 0 c51 0 65 3 65 15 0 12 -14 15 -65 15 l-65 0 0 35 0 34 72 3 c46
2 73 7 76 16 3 9 -19 12 -87 12 l-92 0 3 -117z"/>
<path d="M2410 119 c0 -92 3 -120 13 -117 6 3 13 23 15 46 3 40 4 42 37 42 29
0 39 -7 65 -45 17 -25 37 -45 45 -45 21 0 18 10 -15 54 l-29 39 29 27 c36 34
38 63 5 95 -21 22 -33 25 -95 25 l-70 0 0 -121z m152 65 c11 -23 10 -29 -11
-45 -15 -12 -39 -19 -67 -19 l-44 0 0 45 0 45 55 0 c50 0 57 -3 67 -26z"/>
<path d="M3040 120 c0 -100 3 -120 15 -120 12 0 15 13 15 55 l0 55 65 0 c37 0
65 4 65 10 0 6 -28 10 -65 10 l-65 0 0 40 0 40 70 0 c56 0 70 3 70 15 0 12
-16 15 -85 15 l-85 0 0 -120z"/>
<path d="M3395 128 c-27 -62 -49 -115 -48 -118 6 -18 26 -6 38 24 15 36 16 36
74 36 57 0 60 -1 80 -35 19 -32 41 -47 41 -26 0 5 -22 57 -50 117 -33 74 -55
110 -67 112 -14 2 -29 -23 -68 -110z m111 -35 c-2 -2 -24 -3 -49 -1 l-45 3 25
55 25 55 25 -54 c13 -29 22 -56 19 -58z"/>
<path d="M3630 119 c0 -92 3 -120 13 -117 6 3 13 23 15 46 3 40 5 42 36 42 27
0 38 -7 65 -45 18 -25 39 -45 47 -45 20 0 17 10 -16 54 l-29 39 29 27 c36 34
38 63 5 95 -21 22 -33 25 -95 25 l-70 0 0 -121z m150 72 c21 -41 -12 -71 -79
-71 l-41 0 0 45 0 45 55 0 c43 0 56 -4 65 -19z"/>
<path d="M3852 228 c3 -7 21 -14 41 -16 l36 -3 3 -101 c2 -70 7 -103 16 -106
9 -3 12 22 12 102 l0 106 40 0 c29 0 40 4 40 15 0 12 -17 15 -96 15 -72 0 -95
-3 -92 -12z"/>
<path d="M4090 120 l0 -120 85 0 c69 0 85 3 85 15 0 12 -14 15 -70 15 l-70 0
0 40 0 40 66 0 c48 0 65 3 62 13 -3 7 -28 13 -66 15 l-62 3 0 34 0 35 70 0
c56 0 70 3 70 15 0 12 -16 15 -85 15 l-85 0 0 -120z"/>
<path d="M4310 149 c0 -88 1 -92 30 -121 28 -27 36 -30 77 -25 73 8 87 30 91
142 3 82 2 95 -12 95 -13 0 -16 -14 -16 -85 0 -97 -16 -125 -70 -125 -54 0
-70 28 -70 125 0 69 -3 85 -15 85 -12 0 -15 -17 -15 -91z"/>
<path d="M5217 233 c-13 -22 -97 -215 -97 -223 0 -22 21 -8 37 25 16 34 18 35
78 35 60 0 62 -1 78 -35 19 -40 42 -48 33 -12 -3 13 -26 67 -50 120 -41 88
-64 114 -79 90z m63 -130 c0 -9 -15 -13 -45 -13 -25 0 -45 4 -45 10 0 5 10 30
22 55 l22 46 23 -43 c12 -24 22 -49 23 -55z"/>
<path d="M5400 120 c0 -100 3 -120 15 -120 11 0 15 12 15 45 l0 45 50 0 c41 0
56 5 75 25 14 13 25 36 25 50 0 14 -11 37 -25 50 -21 22 -33 25 -90 25 l-65 0
0 -120z m138 78 c7 -7 12 -21 12 -33 0 -33 -20 -45 -72 -45 l-48 0 0 45 0 45
48 0 c26 0 53 -5 60 -12z"/>
<path d="M5630 119 c0 -92 3 -120 13 -117 8 3 13 39 15 121 2 100 0 117 -13
117 -13 0 -15 -19 -15 -121z"/>
<path d="M5710 225 c0 -10 11 -15 35 -15 l34 0 3 -102 c2 -84 6 -103 18 -103
12 0 16 19 18 102 l3 102 36 3 c20 2 38 9 41 16 3 9 -20 12 -92 12 -79 0 -96
-3 -96 -15z"/>
<path d="M5947 133 c-26 -60 -47 -114 -47 -120 0 -26 21 -12 36 22 14 34 15
35 73 35 57 0 60 -1 80 -35 19 -32 41 -47 41 -26 0 5 -22 57 -50 117 -33 74
-55 110 -67 112 -14 2 -29 -22 -66 -105z m109 -40 c-2 -2 -24 -3 -49 -1 l-45
3 25 55 25 55 25 -54 c13 -29 22 -56 19 -58z"/>
<path d="M6180 120 l0 -120 80 0 c64 0 80 3 80 15 0 12 -14 15 -65 15 l-65 0
0 105 c0 87 -3 105 -15 105 -12 0 -15 -20 -15 -120z"/>
<path d="M6490 119 c0 -92 3 -120 13 -117 7 3 13 26 15 56 l3 52 65 0 64 0 0
-55 c0 -42 3 -55 15 -55 13 0 15 20 15 120 0 100 -2 120 -15 120 -11 0 -15
-12 -15 -50 l0 -50 -65 0 -65 0 0 50 c0 38 -4 50 -15 50 -13 0 -15 -20 -15
-121z"/>
<path d="M7030 120 l0 -120 80 0 c64 0 80 3 80 15 0 12 -14 15 -65 15 l-65 0
0 105 c0 87 -3 105 -15 105 -12 0 -15 -20 -15 -120z"/>
<path d="M7240 120 l0 -120 43 0 c122 0 186 66 158 161 -17 56 -58 79 -138 79
l-63 0 0 -120z m154 59 c29 -34 32 -55 14 -94 -15 -33 -56 -55 -103 -55 l-35
0 0 90 0 90 49 0 c43 0 53 -4 75 -31z"/>
<path d="M7502 123 c2 -97 6 -118 18 -118 12 0 16 21 18 118 3 112 2 117 -18
117 -20 0 -21 -5 -18 -117z"/>
<path d="M7600 120 c0 -100 3 -120 15 -120 12 0 15 17 15 97 l0 96 76 -96 c41
-54 79 -97 85 -97 5 0 9 52 9 120 0 99 -3 120 -15 120 -11 0 -15 -19 -17 -86
l-3 -87 -68 87 c-37 47 -74 86 -82 86 -12 0 -15 -20 -15 -120z"/>
</g>
</svg>
